# xmcd CD database file
#
# Track frame offsets:
#	183
#	16360
#	41508
#	57883
#	80013
#	103998
#	132105
#	161448
#	181020
#
# Disc length: 2686 seconds
#
# Revision: 1
# Processed by: cddbd v1.5.1PL0 Copyright (c) Steve Scherf et al.
# Submitted via: CDex 1.50beta9
#
DISCID=6b0a7c09
DTITLE=The Jeff Healey Band - Full Circle
DYEAR=1991
DGENRE=Rock
TTITLE0=My Little Girl
TTITLE1=I Think I Love You Too Much
TTITLE2=Confidence Man
TTITLE3=Full Circle
TTITLE4=Roadhouse Blues
TTITLE5=Angel Eyes
TTITLE6=See The Light
TTITLE7=Highway Of Dreams
TTITLE8=While My Guitar Gently Weeps
EXTD=YEAR: 1991
EXTT0=
EXTT1=
EXTT2=
EXTT3=
EXTT4=
EXTT5=
EXTT6=
EXTT7=
EXTT8=
PLAYORDER=
